<svg preserveAspectRatio="none" width="566" height="460" viewBox="0 0 566 460" fill="none" xmlns="http://www.w3.org/2000/svg">
<path opacity="0.3" d="M566 230C566 357.025 463.025 460 336 460C208.975 460 106 357.025 106 230C106 102.975 208.975 0 336 0C463.025 0 566 102.975 566 230ZM157.598 230C157.598 328.529 237.471 408.402 336 408.402C434.529 408.402 514.402 328.529 514.402 230C514.402 131.471 434.529 51.5977 336 51.5977C237.471 51.5977 157.598 131.471 157.598 230Z" fill="#FCEBEB"/>
<path opacity="0.3" d="M507 230C507 324.441 430.441 401 336 401C241.559 401 165 324.441 165 230C165 135.559 241.559 59 336 59C430.441 59 507 135.559 507 230ZM172.046 230C172.046 320.549 245.451 393.954 336 393.954C426.549 393.954 499.954 320.549 499.954 230C499.954 139.451 426.549 66.0462 336 66.0462C245.451 66.0462 172.046 139.451 172.046 230Z" fill="#FCEBEB"/>
<path opacity="0.3" d="M270 266C270 340.558 209.558 401 135 401C60.4416 401 0 340.558 0 266C0 191.442 60.4416 131 135 131C209.558 131 270 191.442 270 266ZM42.2126 266C42.2126 317.245 83.755 358.787 135 358.787C186.245 358.787 227.787 317.245 227.787 266C227.787 214.755 186.245 173.213 135 173.213C83.755 173.213 42.2126 214.755 42.2126 266Z" fill="#FAD1D2"/>
</svg>
